<?xml version="1.0" standalone="no"?>
<!DOCTYPE svg PUBLIC "-//W3C//DTD SVG 20010904//EN"
 "http://www.w3.org/TR/2001/REC-SVG-20010904/DTD/svg10.dtd">
<svg version="1.0" xmlns="http://www.w3.org/2000/svg"
 width="500.000000pt" height="500.000000pt" viewBox="0 0 500.000000 500.000000"
 preserveAspectRatio="xMidYMid meet">
<metadata>
Created by potrace 1.14, written by Peter Selinger 2001-2017
</metadata>
<g transform="translate(0.000000,500.000000) scale(0.100000,-0.100000)"
fill="#000000" stroke="none">
<path d="M2395 4754 c-16 -2 -72 -9 -124 -15 -204 -24 -455 -101 -666 -204
-644 -315 -1095 -939 -1196 -1655 -18 -124 -18 -466 0 -590 18 -125 61 -300
106 -429 266 -760 949 -1318 1755 -1432 124 -18 466 -18 590 0 806 114 1489
672 1755 1432 88 252 120 443 120 724 0 220 -12 329 -56 505 -123 502 -405
932 -814 1237 -283 212 -620 353 -973 409 -93 14 -434 27 -497 18z"/>
</g>
</svg>
